<svg width="20" height="20" viewBox="0 0 20 20" fill="none" xmlns="http://www.w3.org/2000/svg">
<path d="M6.74377 2.1875C4.23159 2.1875 2.1875 4.23279 2.1875 6.74561V13.2556C2.1875 15.7681 4.23279 17.8125 6.74561 17.8125H13.2556C15.7681 17.8125 17.8125 15.7672 17.8125 13.2544V6.74377C17.8125 4.23159 15.7672 2.1875 13.2544 2.1875H6.74377ZM14.6875 4.6875C15.0325 4.6875 15.3125 4.9675 15.3125 5.3125C15.3125 5.6575 15.0325 5.9375 14.6875 5.9375C14.3425 5.9375 14.0625 5.6575 14.0625 5.3125C14.0625 4.9675 14.3425 4.6875 14.6875 4.6875ZM10 5.9375C12.2406 5.9375 14.0625 7.75938 14.0625 10C14.0625 12.2406 12.2403 14.0625 10 14.0625C7.75938 14.0625 5.9375 12.2403 5.9375 10C5.9375 7.75969 7.75938 5.9375 10 5.9375ZM10 7.1875C8.44656 7.1875 7.1875 8.44656 7.1875 10C7.1875 11.5534 8.44656 12.8125 10 12.8125C11.5534 12.8125 12.8125 11.5534 12.8125 10C12.8125 8.44656 11.5534 7.1875 10 7.1875Z" fill="#F5C643"/>
</svg>
