<svg width="15" height="18" viewBox="0 0 15 18" fill="none" xmlns="http://www.w3.org/2000/svg">
<path d="M14.5933 0.186523C14.8892 0.419518 15.0445 0.822267 14.9888 1.22502L13.1138 15.0716C13.0698 15.3944 12.897 15.6774 12.645 15.8371C12.3931 15.9969 12.0913 16.0169 11.8247 15.8904L8.32075 14.2361L6.31388 16.7025C6.05313 17.0254 5.64297 17.1319 5.28261 16.9722C4.92226 16.8124 4.68788 16.4163 4.68788 15.9769V13.1943C4.68788 13.0612 4.73182 12.9347 4.81093 12.8382L9.72116 6.75033C9.89108 6.54063 9.88522 6.21777 9.70944 6.01806C9.53365 5.81835 9.24947 5.80503 9.0649 5.99476L3.10582 12.0094L0.518868 10.5382C0.208316 10.3617 0.00909435 10.0089 0.000305148 9.61617C-0.00848405 9.2234 0.173159 8.85727 0.471992 8.66088L13.5972 0.139924C13.9107 -0.0631142 14.2974 -0.0431432 14.5933 0.186523Z" fill="#F5C643"/>
</svg>
