<svg width="20" height="20" viewBox="0 0 20 20" fill="none" xmlns="http://www.w3.org/2000/svg">
<path d="M16.4001 1.59998H3.6001C2.4973 1.59998 1.6001 2.49718 1.6001 3.59998V16.4C1.6001 17.5028 2.4973 18.4 3.6001 18.4H16.4001C17.5029 18.4 18.4001 17.5028 18.4001 16.4V3.59998C18.4001 2.49718 17.5029 1.59998 16.4001 1.59998ZM14.8025 8.92917C14.7117 8.93758 14.6197 8.94317 14.5265 8.94317C13.4773 8.94317 12.5553 8.40357 12.0189 7.58798C12.0189 9.72757 12.0189 12.162 12.0189 12.2028C12.0189 14.0864 10.4917 15.6136 8.6081 15.6136C6.7245 15.6136 5.1973 14.0864 5.1973 12.2028C5.1973 10.3192 6.7245 8.79198 8.6081 8.79198C8.6793 8.79198 8.7489 8.79838 8.8189 8.80277V10.4836C8.7489 10.4752 8.6801 10.4624 8.6081 10.4624C7.6465 10.4624 6.8673 11.2416 6.8673 12.2032C6.8673 13.1648 7.6465 13.944 8.6081 13.944C9.5697 13.944 10.4189 13.1864 10.4189 12.2248C10.4189 12.1868 10.4357 4.38718 10.4357 4.38718H12.0421C12.1933 5.82358 13.3529 6.95718 14.8025 7.06118V8.92917Z" fill="#F5C643"/>
</svg>
